<?xml version="1.0" encoding="utf-8"?>
<!-- Generator: Adobe Illustrator 20.1.0, SVG Export Plug-In . SVG Version: 6.00 Build 0)  -->
<svg version="1.1" id="Слой_1" xmlns="http://www.w3.org/2000/svg" xmlns:xlink="http://www.w3.org/1999/xlink" x="0px" y="0px"
	 viewBox="0 0 512 512" style="enable-background:new 0 0 512 512;" xml:space="preserve">
<style type="text/css">
	.st0{fill:#0B0B0B;}
</style>
<path class="st0" d="M256,8C119,8,8,119,8,256s111,248,248,248s248-111,248-248S393,8,256,8z M313.1,358.1L224.9,294
	c-3.1-2.3-4.9-5.9-4.9-9.7V116c0-6.6,5.4-12,12-12h48c6.6,0,12,5.4,12,12v137.7l63.5,46.2c5.4,3.9,6.5,11.4,2.6,16.8l-28.2,38.8
	C326,360.8,318.5,362,313.1,358.1L313.1,358.1z"/>
</svg>
