<?xml version="1.0" encoding="utf-8"?>
<!-- Generator: Adobe Illustrator 20.1.0, SVG Export Plug-In . SVG Version: 6.00 Build 0)  -->
<svg version="1.1" id="Слой_1" xmlns="http://www.w3.org/2000/svg" xmlns:xlink="http://www.w3.org/1999/xlink" x="0px" y="0px"
	 viewBox="0 0 320 512" style="enable-background:new 0 0 320 512;" xml:space="preserve">
<style type="text/css">
	.st0{fill:#FFFFFF;}
</style>
<path class="st0" d="M192,300.8v172.8l-22,33c-4.8,7.1-15.2,7.1-20,0l-22-33V300.8C149.1,305.1,170.9,305.1,192,300.8z M160,0
	c79.5,0,144,64.5,144,144s-64.5,144-144,144S16,223.5,16,144S80.5,0,160,0 M80,136c0-39.7,32.3-72,72-72c4.4,0,8-3.6,8-8s-3.6-8-8-8
	c-48.5,0-88,39.5-88,88c0,4.4,3.6,8,8,8S80,140.4,80,136z"/>
</svg>
